<svg width="250" height="250" viewBox="0 0 250 250" fill="none" xmlns="http://www.w3.org/2000/svg">
  <rect width="250" height="250" rx="20" fill="#1E1E1E"/>
  <path d="M50 125C50 83.5786 83.5786 50 125 50C166.421 50 200 83.5786 200 125C200 166.421 166.421 200 125 200C83.5786 200 50 166.421 50 125Z" fill="#14F195"/>
  <path d="M70 125C70 94.6243 94.6243 70 125 70C155.376 70 180 94.6243 180 125C180 155.376 155.376 180 125 180C94.6243 180 70 155.376 70 125Z" fill="#1E1E1E"/>
  <path d="M90 125C90 105.67 105.67 90 125 90C144.33 90 160 105.67 160 125C160 144.33 144.33 160 125 160C105.67 160 90 144.33 90 125Z" fill="#14F195"/>
  <path d="M110 125C110 116.716 116.716 110 125 110C133.284 110 140 116.716 140 125C140 133.284 133.284 140 125 140C116.716 140 110 133.284 110 125Z" fill="#1E1E1E"/>
  <path d="M60 210H190" stroke="#14F195" stroke-width="8" stroke-linecap="round"/>
  <path d="M75 225H175" stroke="#14F195" stroke-width="8" stroke-linecap="round"/>
  <path d="M90 240H160" stroke="#14F195" stroke-width="8" stroke-linecap="round"/>
</svg> 