<?xml version="1.0" encoding="UTF-8" standalone="no"?>
<svg width="800" height="600" xmlns="http://www.w3.org/2000/svg">
  <style>
    text {
      font-family: Arial, sans-serif;
    }
    .title {
      font-size: 22px;
      font-weight: bold;
    }
    .subtitle {
      font-size: 16px;
      font-weight: bold;
    }
    .regular-text {
      font-size: 14px;
    }
    .small-text {
      font-size: 12px;
    }
    .component {
      stroke: #ccc;
      stroke-width: 2;
      fill: #f5f5f5;
    }
    .layer {
      stroke: #00afef;
      stroke-width: 3;
      fill: #e3f6ff;
    }
    .connector {
      stroke: #999;
      stroke-width: 2;
      fill: none;
      marker-end: url(#arrowhead);
    }
    .data-flow {
      stroke: #00afef;
      stroke-width: 2;
      stroke-dasharray: 5, 5;
      fill: none;
      marker-end: url(#arrowhead-blue);
    }
  </style>
  
  <defs>
    <marker id="arrowhead" markerWidth="10" markerHeight="7" refX="9" refY="3.5" orient="auto">
      <polygon points="0 0, 10 3.5, 0 7" fill="#999" />
    </marker>
    <marker id="arrowhead-blue" markerWidth="10" markerHeight="7" refX="9" refY="3.5" orient="auto">
      <polygon points="0 0, 10 3.5, 0 7" fill="#00afef" />
    </marker>
  </defs>
  
  <rect width="100%" height="100%" fill="white" />
  
  <text x="400" y="40" text-anchor="middle" class="title">bodyDFI Core Technical Architecture</text>
  
  <!-- Hardware Layer -->
  <rect x="80" y="90" width="640" height="120" rx="10" class="layer" />
  <text x="400" y="115" text-anchor="middle" class="subtitle">Hardware Layer</text>
  
  <rect x="100" y="135" width="180" height="60" rx="5" class="component" />
  <text x="190" y="170" text-anchor="middle" class="regular-text">bodyDFI Sensors</text>
  
  <rect x="310" y="135" width="180" height="60" rx="5" class="component" />
  <text x="400" y="170" text-anchor="middle" class="regular-text">ESP32 Firmware</text>
  
  <rect x="520" y="135" width="180" height="60" rx="5" class="component" />
  <text x="610" y="170" text-anchor="middle" class="regular-text">BLE Connectivity</text>
  
  <!-- Application Layer -->
  <rect x="80" y="240" width="640" height="120" rx="10" class="layer" />
  <text x="400" y="265" text-anchor="middle" class="subtitle">Application Layer</text>
  
  <rect x="100" y="285" width="180" height="60" rx="5" class="component" />
  <text x="190" y="320" text-anchor="middle" class="regular-text">Mobile Application</text>
  
  <rect x="310" y="285" width="180" height="60" rx="5" class="component" />
  <text x="400" y="320" text-anchor="middle" class="regular-text">Web Dashboard</text>
  
  <rect x="520" y="285" width="180" height="60" rx="5" class="component" />
  <text x="610" y="320" text-anchor="middle" class="regular-text">Backend Services</text>
  
  <!-- Blockchain Layer -->
  <rect x="80" y="390" width="640" height="120" rx="10" class="layer" />
  <text x="400" y="415" text-anchor="middle" class="subtitle">Blockchain Layer</text>
  
  <rect x="100" y="435" width="180" height="60" rx="5" class="component" />
  <text x="190" y="470" text-anchor="middle" class="regular-text">Solana Programs</text>
  
  <rect x="310" y="435" width="180" height="60" rx="5" class="component" />
  <text x="400" y="470" text-anchor="middle" class="regular-text">Token Economy</text>
  
  <rect x="520" y="435" width="180" height="60" rx="5" class="component" />
  <text x="610" y="470" text-anchor="middle" class="regular-text">Data Marketplace</text>
  
  <!-- Layer Connectors -->
  <path d="M 400 210 L 400 240" class="connector" />
  <path d="M 400 360 L 400 390" class="connector" />
  
  <!-- Data Flow -->
  <text x="110" y="550" class="subtitle">Data Flow:</text>
  <path d="M 190 165 C 220 165, 250 170, 280 170" class="data-flow" />
  <text x="235" y="160" class="small-text">1. Collect</text>
  
  <path d="M 490 165 C 520 165, 550 170, 580 170" class="data-flow" />
  <text x="535" y="160" class="small-text">2. Transmit</text>
  
  <path d="M 610 195 C 610 235, 610 275, 610 285" class="data-flow" />
  <text x="620" y="245" class="small-text">3. Process</text>
  
  <path d="M 520 315 C 490 315, 460 315, 430 315" class="data-flow" />
  <text x="475" y="305" class="small-text">4. Visualize</text>
  
  <path d="M 520 345 C 520 380, 520 415, 520 435" class="data-flow" />
  <text x="530" y="400" class="small-text">5. Verify</text>
  
  <path d="M 310 465 C 280 465, 250 465, 220 465" class="data-flow" />
  <text x="265" y="455" class="small-text">6. Reward</text>
  
  <!-- Legend -->
  <rect x="120" y="530" width="560" height="50" rx="5" fill="#f9f9f9" stroke="#ccc" />
  <text x="150" y="555" class="small-text">Data Collection</text>
  <text x="270" y="555" class="small-text">Processing</text>
  <text x="370" y="555" class="small-text">Storage</text>
  <text x="450" y="555" class="small-text">Analysis</text>
  <text x="530" y="555" class="small-text">Marketplace</text>
  <text x="630" y="555" class="small-text">Rewards</text>
  
  <line x1="150" y1="565" x2="250" y2="565" stroke="#00afef" stroke-width="2" />
  <line x1="270" y1="565" x2="350" y2="565" stroke="#00afef" stroke-width="2" />
  <line x1="370" y1="565" x2="430" y2="565" stroke="#00afef" stroke-width="2" />
  <line x1="450" y1="565" x2="510" y2="565" stroke="#00afef" stroke-width="2" />
  <line x1="530" y1="565" x2="610" y2="565" stroke="#00afef" stroke-width="2" />
  <line x1="630" y1="565" x2="680" y2="565" stroke="#00afef" stroke-width="2" />
</svg> 